<mxfile host="app.diagrams.net" agent="Mozilla/5.0 (Windows NT 10.0; Win64; x64) AppleWebKit/537.36 (KHTML, like Gecko) Chrome/140.0.0.0 Safari/537.36 Edg/140.0.0.0" version="28.2.8">
  <diagram name="roadmap" id="2l_sZtIRdoLyPj4Sk1Ge">
    <mxGraphModel dx="3927" dy="2420" grid="1" gridSize="10" guides="1" tooltips="1" connect="1" arrows="1" fold="1" page="1" pageScale="1" pageWidth="827" pageHeight="1169" math="0" shadow="0">
      <root>
        <mxCell id="0" />
        <mxCell id="1" parent="0" />
        <mxCell id="nfSb1PT8enzWGBPoAT3M-1" value="" style="shape=rect;fillColor=#fff2cc;strokeColor=none;fontSize=24;html=1;whiteSpace=wrap;align=left;verticalAlign=top;spacing=5;rounded=0;" vertex="1" parent="1">
          <mxGeometry x="270" y="540" width="2230" height="180" as="geometry" />
        </mxCell>
        <mxCell id="nfSb1PT8enzWGBPoAT3M-2" value="" style="shape=rect;fillColor=#fff2cc;strokeColor=none;fontSize=24;html=1;whiteSpace=wrap;align=left;verticalAlign=top;spacing=5;rounded=0;" vertex="1" parent="1">
          <mxGeometry x="270" y="323.20000000000005" width="2230" height="196.8" as="geometry" />
        </mxCell>
        <mxCell id="nfSb1PT8enzWGBPoAT3M-3" value="T1 - Проектирование контракта API, макетов GUI, системная аналитика" style="shape=rect;fillColor=#ffe6cc;strokeColor=#d79b00;fontSize=18;html=1;whiteSpace=wrap;align=left;verticalAlign=top;spacing=5;rounded=0;" vertex="1" parent="1">
          <mxGeometry x="290" y="340" width="280" height="80" as="geometry" />
        </mxCell>
        <mxCell id="nfSb1PT8enzWGBPoAT3M-4" value="&lt;div style=&quot;text-align: left;&quot;&gt;&lt;span style=&quot;background-color: transparent; color: light-dark(rgb(0, 0, 0), rgb(255, 255, 255));&quot;&gt;&lt;font&gt;T2 - Инфраструктура, CI\CD, разворачивание шаблонного сервиса на всех стендах&amp;nbsp;&lt;/font&gt;&lt;/span&gt;&lt;/div&gt;" style="shape=rect;fillColor=#ffe6cc;strokeColor=#d79b00;fontSize=18;html=1;whiteSpace=wrap;align=center;verticalAlign=top;spacing=5;rounded=0;" vertex="1" parent="1">
          <mxGeometry x="290" y="430" width="280" height="70" as="geometry" />
        </mxCell>
        <mxCell id="nfSb1PT8enzWGBPoAT3M-5" value="Сервис депозитов" style="rounded=0;whiteSpace=wrap;html=1;fillColor=#f5f5f5;fontColor=#333333;strokeColor=#666666;fontSize=18;" vertex="1" parent="1">
          <mxGeometry x="140" y="323.20000000000005" width="120" height="196.8" as="geometry" />
        </mxCell>
        <mxCell id="nfSb1PT8enzWGBPoAT3M-6" value="Сервис перс.&lt;div&gt;предложений&lt;/div&gt;" style="rounded=0;whiteSpace=wrap;html=1;fillColor=#f5f5f5;fontColor=#333333;strokeColor=#666666;fontSize=18;" vertex="1" parent="1">
          <mxGeometry x="140" y="540" width="120" height="180" as="geometry" />
        </mxCell>
        <mxCell id="nfSb1PT8enzWGBPoAT3M-7" value="1 месяц&lt;div&gt;подготовительный этап&lt;/div&gt;" style="shape=step;perimeter=stepPerimeter;whiteSpace=wrap;html=1;fixedSize=1;size=10;fillColor=#D3EECA;strokeColor=#36393d;fontSize=18;fontStyle=1;align=center;rounded=0;" vertex="1" parent="1">
          <mxGeometry x="270" y="230" width="380" height="74.4" as="geometry" />
        </mxCell>
        <mxCell id="nfSb1PT8enzWGBPoAT3M-8" value="2 месяц" style="shape=step;perimeter=stepPerimeter;whiteSpace=wrap;html=1;fixedSize=1;size=10;fillColor=#f5f5f5;strokeColor=#666666;fontSize=18;fontStyle=1;align=center;rounded=0;fontColor=#333333;" vertex="1" parent="1">
          <mxGeometry x="640" y="230" width="380" height="74.4" as="geometry" />
        </mxCell>
        <mxCell id="nfSb1PT8enzWGBPoAT3M-9" value="3 месяц" style="shape=step;perimeter=stepPerimeter;whiteSpace=wrap;html=1;fixedSize=1;size=10;fillColor=#f5f5f5;strokeColor=#666666;fontSize=18;fontStyle=1;align=center;rounded=0;fontColor=#333333;" vertex="1" parent="1">
          <mxGeometry x="1010" y="230" width="380" height="74.4" as="geometry" />
        </mxCell>
        <mxCell id="nfSb1PT8enzWGBPoAT3M-10" value="4 месяц" style="shape=step;perimeter=stepPerimeter;whiteSpace=wrap;html=1;fixedSize=1;size=10;fillColor=#f5f5f5;strokeColor=#666666;fontSize=18;fontStyle=1;align=center;rounded=0;fontColor=#333333;" vertex="1" parent="1">
          <mxGeometry x="1380" y="230" width="380" height="74.4" as="geometry" />
        </mxCell>
        <mxCell id="nfSb1PT8enzWGBPoAT3M-11" value="5 месяц" style="shape=step;perimeter=stepPerimeter;whiteSpace=wrap;html=1;fixedSize=1;size=10;fillColor=#f5f5f5;strokeColor=#666666;fontSize=18;fontStyle=1;align=center;rounded=0;fontColor=#333333;" vertex="1" parent="1">
          <mxGeometry x="1750" y="230" width="380" height="74.4" as="geometry" />
        </mxCell>
        <mxCell id="nfSb1PT8enzWGBPoAT3M-12" value="6 месяц&lt;div&gt;пред-релизный этап&lt;/div&gt;" style="shape=step;perimeter=stepPerimeter;whiteSpace=wrap;html=1;fixedSize=1;size=10;fillColor=#F5DCDA;strokeColor=#666666;fontSize=18;fontStyle=1;align=center;rounded=0;fontColor=#333333;direction=east;" vertex="1" parent="1">
          <mxGeometry x="2120" y="230" width="380" height="74.4" as="geometry" />
        </mxCell>
        <mxCell id="nfSb1PT8enzWGBPoAT3M-13" value="" style="shape=rect;fillColor=#fff2cc;strokeColor=none;fontSize=24;html=1;whiteSpace=wrap;align=left;verticalAlign=top;spacing=5;rounded=0;" vertex="1" parent="1">
          <mxGeometry x="270" y="740" width="2230" height="180" as="geometry" />
        </mxCell>
        <mxCell id="nfSb1PT8enzWGBPoAT3M-14" value="ApiGateway&lt;div&gt;и сервис авторизации&lt;/div&gt;" style="rounded=0;whiteSpace=wrap;html=1;fillColor=#f5f5f5;fontColor=#333333;strokeColor=#666666;fontSize=18;" vertex="1" parent="1">
          <mxGeometry x="140" y="740" width="120" height="180" as="geometry" />
        </mxCell>
        <mxCell id="nfSb1PT8enzWGBPoAT3M-16" value="" style="shape=rect;fillColor=#fff2cc;strokeColor=none;fontSize=24;html=1;whiteSpace=wrap;align=left;verticalAlign=top;spacing=5;rounded=0;" vertex="1" parent="1">
          <mxGeometry x="270" y="940" width="2230" height="196.8" as="geometry" />
        </mxCell>
        <mxCell id="nfSb1PT8enzWGBPoAT3M-17" value="Сервис нотификаций" style="rounded=0;whiteSpace=wrap;html=1;fillColor=#f5f5f5;fontColor=#333333;strokeColor=#666666;fontSize=18;" vertex="1" parent="1">
          <mxGeometry x="140" y="940" width="120" height="196.8" as="geometry" />
        </mxCell>
        <mxCell id="nfSb1PT8enzWGBPoAT3M-19" value="" style="shape=rect;fillColor=#fff2cc;strokeColor=none;fontSize=24;html=1;whiteSpace=wrap;align=left;verticalAlign=top;spacing=5;rounded=0;" vertex="1" parent="1">
          <mxGeometry x="270" y="1160" width="2230" height="180" as="geometry" />
        </mxCell>
        <mxCell id="nfSb1PT8enzWGBPoAT3M-20" value="Система колл-центра и CRM" style="rounded=0;whiteSpace=wrap;html=1;fillColor=#f5f5f5;fontColor=#333333;strokeColor=#666666;fontSize=18;" vertex="1" parent="1">
          <mxGeometry x="140" y="1160" width="120" height="180" as="geometry" />
        </mxCell>
        <mxCell id="nfSb1PT8enzWGBPoAT3M-21" value="" style="shape=rect;fillColor=#fff2cc;strokeColor=none;fontSize=24;html=1;whiteSpace=wrap;align=left;verticalAlign=top;spacing=5;rounded=0;" vertex="1" parent="1">
          <mxGeometry x="270" y="1363.2" width="2230" height="180" as="geometry" />
        </mxCell>
        <mxCell id="nfSb1PT8enzWGBPoAT3M-22" value="АБС, адаптер к АБС" style="rounded=0;whiteSpace=wrap;html=1;fillColor=#f5f5f5;fontColor=#333333;strokeColor=#666666;fontSize=18;" vertex="1" parent="1">
          <mxGeometry x="140" y="1363.2" width="120" height="180" as="geometry" />
        </mxCell>
        <mxCell id="nfSb1PT8enzWGBPoAT3M-23" value="T3 - Проектирование контракта API, системная аналитика" style="shape=rect;fillColor=#ffe6cc;strokeColor=#d79b00;fontSize=18;html=1;whiteSpace=wrap;align=left;verticalAlign=top;spacing=5;rounded=0;" vertex="1" parent="1">
          <mxGeometry x="290" y="550" width="280" height="60" as="geometry" />
        </mxCell>
        <mxCell id="nfSb1PT8enzWGBPoAT3M-24" value="&lt;div style=&quot;text-align: left;&quot;&gt;&lt;span style=&quot;background-color: transparent; color: light-dark(rgb(0, 0, 0), rgb(255, 255, 255));&quot;&gt;&lt;font&gt;T4 - Инфраструктура, CI\CD, разворачивание шаблонного сервиса на всех стендах&amp;nbsp;&lt;/font&gt;&lt;/span&gt;&lt;/div&gt;" style="shape=rect;fillColor=#ffe6cc;strokeColor=#d79b00;fontSize=18;html=1;whiteSpace=wrap;align=center;verticalAlign=top;spacing=5;rounded=0;" vertex="1" parent="1">
          <mxGeometry x="290" y="630" width="280" height="70" as="geometry" />
        </mxCell>
        <mxCell id="nfSb1PT8enzWGBPoAT3M-25" value="T5 - Проектирование контракта API, системная аналитика" style="shape=rect;fillColor=#ffe6cc;strokeColor=#d79b00;fontSize=18;html=1;whiteSpace=wrap;align=left;verticalAlign=top;spacing=5;rounded=0;" vertex="1" parent="1">
          <mxGeometry x="290" y="750" width="280" height="60" as="geometry" />
        </mxCell>
        <mxCell id="nfSb1PT8enzWGBPoAT3M-26" value="&lt;div style=&quot;text-align: left;&quot;&gt;&lt;span style=&quot;background-color: transparent; color: light-dark(rgb(0, 0, 0), rgb(255, 255, 255));&quot;&gt;&lt;font&gt;T6 - Инфраструктура, CI\CD, разворачивание шаблонного сервиса на всех стендах&amp;nbsp;&lt;/font&gt;&lt;/span&gt;&lt;/div&gt;" style="shape=rect;fillColor=#ffe6cc;strokeColor=#d79b00;fontSize=18;html=1;whiteSpace=wrap;align=center;verticalAlign=top;spacing=5;rounded=0;" vertex="1" parent="1">
          <mxGeometry x="290" y="830" width="280" height="70" as="geometry" />
        </mxCell>
        <mxCell id="nfSb1PT8enzWGBPoAT3M-27" value="T11 - Проектирование контракта API адаптера, системная аналитика" style="shape=rect;fillColor=#ffe6cc;strokeColor=#d79b00;fontSize=18;html=1;whiteSpace=wrap;align=left;verticalAlign=top;spacing=5;rounded=0;" vertex="1" parent="1">
          <mxGeometry x="290" y="1373.2" width="280" height="80" as="geometry" />
        </mxCell>
        <mxCell id="nfSb1PT8enzWGBPoAT3M-28" value="&lt;div style=&quot;text-align: left;&quot;&gt;&lt;span style=&quot;background-color: transparent; color: light-dark(rgb(0, 0, 0), rgb(255, 255, 255));&quot;&gt;&lt;font&gt;T12 - Инфраструктура, CI\CD, разворачивание шаблонного сервиса на всех стендах&amp;nbsp;&lt;/font&gt;&lt;/span&gt;&lt;/div&gt;" style="shape=rect;fillColor=#ffe6cc;strokeColor=#d79b00;fontSize=18;html=1;whiteSpace=wrap;align=center;verticalAlign=top;spacing=5;rounded=0;" vertex="1" parent="1">
          <mxGeometry x="290" y="1463.2" width="280" height="70" as="geometry" />
        </mxCell>
        <mxCell id="nfSb1PT8enzWGBPoAT3M-29" value="T7 - Проектирование контракта API, системная аналитика" style="shape=rect;fillColor=#ffe6cc;strokeColor=#d79b00;fontSize=18;html=1;whiteSpace=wrap;align=left;verticalAlign=top;spacing=5;rounded=0;" vertex="1" parent="1">
          <mxGeometry x="290" y="960" width="280" height="60" as="geometry" />
        </mxCell>
        <mxCell id="nfSb1PT8enzWGBPoAT3M-30" value="&lt;div style=&quot;text-align: left;&quot;&gt;&lt;span style=&quot;background-color: transparent; color: light-dark(rgb(0, 0, 0), rgb(255, 255, 255));&quot;&gt;&lt;font&gt;T8 - Инфраструктура, CI\CD, разворачивание шаблонного сервиса на всех стендах&amp;nbsp;&lt;/font&gt;&lt;/span&gt;&lt;/div&gt;" style="shape=rect;fillColor=#ffe6cc;strokeColor=#d79b00;fontSize=18;html=1;whiteSpace=wrap;align=center;verticalAlign=top;spacing=5;rounded=0;" vertex="1" parent="1">
          <mxGeometry x="290" y="1040" width="280" height="70" as="geometry" />
        </mxCell>
        <mxCell id="nfSb1PT8enzWGBPoAT3M-32" value="T9 - системная аналитика модуля CRM, его активация, подписание договоров с подрядчиком" style="shape=rect;fillColor=#ffe6cc;strokeColor=#d79b00;fontSize=18;html=1;whiteSpace=wrap;align=left;verticalAlign=top;spacing=5;rounded=0;" vertex="1" parent="1">
          <mxGeometry x="290" y="1173.2" width="280" height="96.8" as="geometry" />
        </mxCell>
        <mxCell id="nfSb1PT8enzWGBPoAT3M-33" value="" style="shape=rect;fillColor=#fff2cc;strokeColor=none;fontSize=24;html=1;whiteSpace=wrap;align=left;verticalAlign=top;spacing=5;rounded=0;" vertex="1" parent="1">
          <mxGeometry x="270" y="1560" width="2230" height="180" as="geometry" />
        </mxCell>
        <mxCell id="nfSb1PT8enzWGBPoAT3M-34" value="Сайт" style="rounded=0;whiteSpace=wrap;html=1;fillColor=#f5f5f5;fontColor=#333333;strokeColor=#666666;fontSize=18;" vertex="1" parent="1">
          <mxGeometry x="140" y="1560" width="120" height="180" as="geometry" />
        </mxCell>
        <mxCell id="nfSb1PT8enzWGBPoAT3M-35" value="T13 - Проектирование макетов GUI, системная аналитика" style="shape=rect;fillColor=#ffe6cc;strokeColor=#d79b00;fontSize=18;html=1;whiteSpace=wrap;align=left;verticalAlign=top;spacing=5;rounded=0;" vertex="1" parent="1">
          <mxGeometry x="290" y="1570" width="280" height="80" as="geometry" />
        </mxCell>
        <mxCell id="nfSb1PT8enzWGBPoAT3M-36" value="&lt;div style=&quot;text-align: left;&quot;&gt;&lt;span style=&quot;background-color: transparent; color: light-dark(rgb(0, 0, 0), rgb(255, 255, 255));&quot;&gt;&lt;font&gt;T14 - настройка CI\CD, внедрение логирования и базовых инженерных практик&lt;/font&gt;&lt;/span&gt;&lt;/div&gt;" style="shape=rect;fillColor=#ffe6cc;strokeColor=#d79b00;fontSize=18;html=1;whiteSpace=wrap;align=center;verticalAlign=top;spacing=5;rounded=0;" vertex="1" parent="1">
          <mxGeometry x="290" y="1660" width="280" height="70" as="geometry" />
        </mxCell>
        <mxCell id="nfSb1PT8enzWGBPoAT3M-37" value="" style="shape=rect;fillColor=#fff2cc;strokeColor=none;fontSize=24;html=1;whiteSpace=wrap;align=left;verticalAlign=top;spacing=5;rounded=0;" vertex="1" parent="1">
          <mxGeometry x="270" y="1756" width="2230" height="180" as="geometry" />
        </mxCell>
        <mxCell id="nfSb1PT8enzWGBPoAT3M-38" value="Интернет-Банк" style="rounded=0;whiteSpace=wrap;html=1;fillColor=#f5f5f5;fontColor=#333333;strokeColor=#666666;fontSize=18;" vertex="1" parent="1">
          <mxGeometry x="140" y="1756" width="120" height="180" as="geometry" />
        </mxCell>
        <mxCell id="nfSb1PT8enzWGBPoAT3M-39" value="T15 - Проектирование макетов GUI, новых интеграций, системная аналитика" style="shape=rect;fillColor=#ffe6cc;strokeColor=#d79b00;fontSize=18;html=1;whiteSpace=wrap;align=left;verticalAlign=top;spacing=5;rounded=0;" vertex="1" parent="1">
          <mxGeometry x="290" y="1766" width="280" height="80" as="geometry" />
        </mxCell>
        <mxCell id="nfSb1PT8enzWGBPoAT3M-40" value="&lt;div style=&quot;text-align: left;&quot;&gt;&lt;span style=&quot;background-color: transparent; color: light-dark(rgb(0, 0, 0), rgb(255, 255, 255));&quot;&gt;&lt;font&gt;T16 -&amp;nbsp;&lt;/font&gt;&lt;/span&gt;&lt;span style=&quot;background-color: transparent; color: light-dark(rgb(0, 0, 0), rgb(255, 255, 255));&quot;&gt;настройка CI\CD, внедрение логирования и базовых инженерных практик&lt;/span&gt;&lt;/div&gt;" style="shape=rect;fillColor=#ffe6cc;strokeColor=#d79b00;fontSize=18;html=1;whiteSpace=wrap;align=center;verticalAlign=top;spacing=5;rounded=0;" vertex="1" parent="1">
          <mxGeometry x="290" y="1856" width="280" height="70" as="geometry" />
        </mxCell>
        <mxCell id="nfSb1PT8enzWGBPoAT3M-42" value="T10 - системная аналитика доработок колл-центра" style="shape=rect;fillColor=#ffe6cc;strokeColor=#d79b00;fontSize=18;html=1;whiteSpace=wrap;align=left;verticalAlign=top;spacing=5;rounded=0;" vertex="1" parent="1">
          <mxGeometry x="290" y="1280" width="280" height="60" as="geometry" />
        </mxCell>
        <mxCell id="nfSb1PT8enzWGBPoAT3M-43" value="T17 - API для сайта" style="shape=rect;fillColor=#ffe6cc;strokeColor=#d79b00;fontSize=18;html=1;whiteSpace=wrap;align=left;verticalAlign=top;spacing=5;rounded=0;" vertex="1" parent="1">
          <mxGeometry x="600" y="370" width="280" height="40" as="geometry" />
        </mxCell>
        <mxCell id="nfSb1PT8enzWGBPoAT3M-44" value="T18 - API для интернет-банка" style="shape=rect;fillColor=#ffe6cc;strokeColor=#d79b00;fontSize=18;html=1;whiteSpace=wrap;align=left;verticalAlign=top;spacing=5;rounded=0;" vertex="1" parent="1">
          <mxGeometry x="880" y="430" width="280" height="40" as="geometry" />
        </mxCell>
        <mxCell id="nfSb1PT8enzWGBPoAT3M-45" value="T19 - Агрегация заявок разных каналов, интеграция данных в АБС" style="shape=rect;fillColor=#ffe6cc;strokeColor=#d79b00;fontSize=18;html=1;whiteSpace=wrap;align=left;verticalAlign=top;spacing=5;rounded=0;" vertex="1" parent="1">
          <mxGeometry x="1160" y="350" width="390" height="60" as="geometry" />
        </mxCell>
        <mxCell id="nfSb1PT8enzWGBPoAT3M-46" value="T20 -&amp;nbsp;" style="shape=rect;fillColor=#ffe6cc;strokeColor=#d79b00;fontSize=18;html=1;whiteSpace=wrap;align=left;verticalAlign=top;spacing=5;rounded=0;" vertex="1" parent="1">
          <mxGeometry x="1550" y="420" width="390" height="60" as="geometry" />
        </mxCell>
      </root>
    </mxGraphModel>
  </diagram>
</mxfile>
